<?xml version="1.0" encoding="UTF-8" standalone="no"?>
<!-- Created with Inkscape (http://www.inkscape.org/) -->

<svg
   xmlns:dc="http://purl.org/dc/elements/1.1/"
   xmlns:cc="http://creativecommons.org/ns#"
   xmlns:rdf="http://www.w3.org/1999/02/22-rdf-syntax-ns#"
   xmlns:svg="http://www.w3.org/2000/svg"
   xmlns="http://www.w3.org/2000/svg"
   xmlns:sodipodi="http://sodipodi.sourceforge.net/DTD/sodipodi-0.dtd"
   xmlns:inkscape="http://www.inkscape.org/namespaces/inkscape"
   width="300"
   height="150"
   viewBox="0 0 79.375 39.687499"
   version="1.1"
   id="svg8"
   inkscape:version="0.92.4 (5da689c313, 2019-01-14)"
   sodipodi:docname="structured_data_logo.svg">
  <defs
     id="defs2" />
  <sodipodi:namedview
     id="com.codecool.backend.base"
     pagecolor="#ffffff"
     bordercolor="#666666"
     borderopacity="1.0"
     inkscape:pageopacity="0.0"
     inkscape:pageshadow="2"
     inkscape:zoom="2.8"
     inkscape:cx="83.496872"
     inkscape:cy="40.668856"
     inkscape:document-units="px"
     inkscape:current-layer="layer1"
     showgrid="false"
     units="px"
     inkscape:window-width="1920"
     inkscape:window-height="1137"
     inkscape:window-x="-8"
     inkscape:window-y="-8"
     inkscape:window-maximized="1" />
  <metadata
     id="metadata5">
    <rdf:RDF>
      <cc:Work
         rdf:about="">
        <dc:format>image/svg+xml</dc:format>
        <dc:type
           rdf:resource="http://purl.org/dc/dcmitype/StillImage" />
        <dc:title></dc:title>
      </cc:Work>
    </rdf:RDF>
  </metadata>
  <g
     inkscape:label="Layer 1"
     inkscape:groupmode="layer"
     id="layer1"
     transform="translate(0,-257.31251)">
    <g
       transform="matrix(0.09739616,0,0,-0.09741907,10.698726,318.16431)"
       inkscape:label="Aprozarul Virtual2"
       id="g1686">
      <g
         id="g1688">
        <path
           inkscape:connector-curvature="0"
           id="path1690"
           style="fill:#f00000;fill-opacity:1;fill-rule:nonzero;stroke:none"
           d="m 175.8521,441.9241 h -37.9228 c -2.3672,0 -4.3033,1.9372 -4.3033,4.3036 0,2.3672 1.9361,4.3041 4.3033,4.3041 h 37.9228 c 2.3675,0 4.3038,-1.9369 4.3038,-4.3041 0,-2.3664 -1.9363,-4.3036 -4.3038,-4.3036" />
        <path
           inkscape:connector-curvature="0"
           id="path1692"
           style="fill:#05a300;fill-opacity:1;fill-rule:nonzero;stroke:none"
           d="m 61.4903,448.0634 c -7.8072,33.7734 -21.8356,35.4404 -26.6582,31.1712 -4.8237,-4.2713 -1.6653,-18.4437 26.6582,-31.1712 z m 2.2909,3.2794 c -9.244,27.3313 -4.9396,32.7211 0.2546,31.0456 5.1942,-1.6759 3.1189,-19.969 -0.2546,-31.0456" />
        <path
           inkscape:connector-curvature="0"
           id="path1694"
           style="fill:#9b3c1e;fill-opacity:1;fill-rule:nonzero;stroke:none"
           d="m 112.1321,431.0972 c -0.6075,3.5946 -0.6619,7.2791 -0.2778,10.9182 0.1871,1.8207 0.4782,3.6346 0.8932,5.4346 0.216,0.8994 0.4439,1.7971 0.7378,2.696 0.3005,0.9125 0.5735,1.762 1.1835,2.7989 0.4181,0.7095 1.3314,0.9465 2.0412,0.5298 0.7098,-0.4181 0.9465,-1.3314 0.5298,-2.0412 -0.0272,-0.0448 -0.0553,-0.0868 -0.0839,-0.1267 l -0.0351,-0.0474 c -0.3496,-0.4756 -0.7518,-1.2971 -1.0647,-2.0605 -0.3323,-0.7786 -0.618,-1.595 -0.8924,-2.4159 -0.5369,-1.6487 -0.9652,-3.3469 -1.2954,-5.0647 -0.669,-3.4364 -0.9286,-6.967 -0.6489,-10.4774 l 0.001,-0.008 c 0.0235,-0.3027 -0.201,-0.5675 -0.5037,-0.591 -0.2849,-0.0229 -0.5378,0.1792 -0.5848,0.4553" />
        <path
           inkscape:connector-curvature="0"
           id="path1696"
           style="fill:#05a300;fill-opacity:1;fill-rule:nonzero;stroke:none"
           d="m 109.2271,432.0306 c -8.3472,17.4025 -16.1779,16.602 -18.282,13.6948 -2.1031,-2.9075 1.3348,-10.2252 18.282,-13.6948" />
        <path
           inkscape:connector-curvature="0"
           id="path1698"
           style="fill:#ffffff;fill-opacity:1;fill-rule:nonzero;stroke:none"
           d="m 122.0712,425.2734 c 0.9292,2.5242 7.4704,1.332 10.1469,-1.0579 2.677,-2.389 5.4224,-8.6873 1.6288,-9.0176 -3.7928,-0.3305 -3.0816,3.4064 -5.821,4.868 -2.7397,1.4626 -7.4154,1.243 -5.9547,5.2075" />
        <path
           inkscape:connector-curvature="0"
           id="path1700"
           style="fill:#9b3c1e;fill-opacity:1;fill-rule:nonzero;stroke:none"
           d="m 208.7493,379.2129 -19.7907,-43.5962 c -0.6746,-1.4871 -2.1566,-2.4424 -3.7908,-2.4424 h -63.7526 v 6.0089 h 0.005 c 1.0605,0 1.9202,0.8598 1.9202,1.9202 v 30.833 c 0,1.0605 -0.8597,1.9202 -1.9202,1.9202 h -0.005 v 9.6752 l 84.5754,-0.0354 c 2.2031,-10e-4 3.6689,-2.2774 2.7587,-4.2835 z m -70.8608,-7.0815 c 0.1074,1.052 1.0483,1.8176 2.1002,1.7102 1.0519,-0.1075 1.8176,-1.0483 1.7101,-2.1002 l -3.1481,-30.833 c -0.1075,-1.052 -1.0483,-1.8176 -2.1002,-1.7102 -1.0519,0.1075 -1.8176,1.0483 -1.7102,2.1002 z m 55.2464,0.525 c 0.3974,0.9816 1.516,1.455 2.4976,1.0576 0.9816,-0.3974 1.455,-1.516 1.0576,-2.4976 l -12.587,-30.833 c -0.3974,-0.9816 -1.5159,-1.455 -2.4976,-1.0576 -0.9816,0.3974 -1.455,1.516 -1.0576,2.4976 z m -18.4258,-0.165 c 0.3065,1.0106 1.3746,1.5815 2.3851,1.2751 1.0106,-0.3065 1.5815,-1.3746 1.275,-2.3851 l -9.4408,-30.833 c -0.3064,-1.0106 -1.3745,-1.5815 -2.385,-1.275 -1.0106,0.3064 -1.5815,1.3745 -1.2751,2.385 z m -18.4184,-0.1726 c 0.2112,1.0355 1.2221,1.7039 2.2576,1.4927 1.0354,-0.2112 1.7039,-1.222 1.4927,-2.2575 l -6.2929,-30.833 c -0.2112,-1.0355 -1.2221,-1.7039 -2.2575,-1.4927 -1.0355,0.2112 -1.704,1.222 -1.4928,2.2575 z M 47.2731,371.2164 c -0.3974,0.9816 0.076,2.1002 1.0576,2.4976 0.9816,0.3974 2.1002,-0.076 2.4976,-1.0576 l 12.5867,-30.833 c 0.3974,-0.9816 -0.076,-2.1002 -1.0576,-2.4976 -0.9817,-0.3974 -2.1002,0.076 -2.4976,1.0576 z m 18.04,0.165 c -0.3065,1.0105 0.2644,2.0786 1.275,2.3851 1.0105,0.3064 2.0786,-0.2645 2.3851,-1.2751 l 9.4405,-30.833 c 0.3064,-1.0105 -0.2645,-2.0786 -1.2751,-2.385 -1.0105,-0.3065 -2.0786,0.2644 -2.385,1.275 z m 18.047,0.1726 c -0.2112,1.0355 0.4573,2.0463 1.4928,2.2575 1.0354,0.2112 2.0463,-0.4572 2.2575,-1.4927 l 6.294,-30.833 c 0.2112,-1.0355 -0.4572,-2.0463 -1.4927,-2.2575 -1.0355,-0.2112 -2.0463,0.4572 -2.2575,1.4927 z m 18.0627,0.195 c -0.1035,1.052 0.6658,1.9891 1.7178,2.0926 1.0519,0.1034 1.989,-0.6659 2.0925,-1.7178 l 3.147,-30.833 c 0.1035,-1.052 -0.6658,-1.9891 -1.7178,-2.0926 -1.0519,-0.1034 -1.989,0.6659 -2.0925,1.7178 z m -67.341,7.4639 19.7906,-43.5962 c 0.6747,-1.4871 2.1564,-2.4424 3.7911,-2.4424 h 63.7515 v 6.0089 c -1.0582,0.003 -1.9148,0.8615 -1.9148,1.9202 v 30.833 c 0,1.0587 0.8566,1.9171 1.9148,1.9202 v 9.6752 l -84.5754,-0.0354 c -2.2019,-10e-4 -3.6677,-2.2774 -2.7578,-4.2835" />
        <path
           inkscape:connector-curvature="0"
           id="path1702"
           style="fill:#ffffff;fill-opacity:1;fill-rule:nonzero;stroke:none"
           d="m 137.8885,372.1314 c 0.1074,1.052 1.0483,1.8176 2.1002,1.7102 1.0519,-0.1075 1.8176,-1.0483 1.7101,-2.1002 l -3.1481,-30.833 c -0.1075,-1.052 -1.0483,-1.8176 -2.1002,-1.7102 -1.0519,0.1075 -1.8176,1.0483 -1.7102,2.1002 z m 55.2464,0.525 c 0.3974,0.9816 1.516,1.455 2.4976,1.0576 0.9816,-0.3974 1.455,-1.516 1.0576,-2.4976 l -12.587,-30.833 c -0.3974,-0.9816 -1.5159,-1.455 -2.4976,-1.0576 -0.9816,0.3974 -1.455,1.516 -1.0576,2.4976 z m -18.4258,-0.165 c 0.3065,1.0106 1.3746,1.5815 2.3851,1.2751 1.0106,-0.3065 1.5815,-1.3746 1.275,-2.3851 l -9.4408,-30.833 c -0.3064,-1.0106 -1.3745,-1.5815 -2.385,-1.275 -1.0106,0.3064 -1.5815,1.3745 -1.2751,2.385 z m -18.4184,-0.1726 c 0.2112,1.0355 1.2221,1.7039 2.2576,1.4927 1.0354,-0.2112 1.7039,-1.222 1.4927,-2.2575 l -6.2929,-30.833 c -0.2112,-1.0355 -1.2221,-1.7039 -2.2575,-1.4927 -1.0355,0.2112 -1.704,1.222 -1.4928,2.2575 z" />
        <path
           inkscape:connector-curvature="0"
           id="path1704"
           style="fill:#9b3c1e;fill-opacity:1;fill-rule:nonzero;stroke:none"
           d="M 188.3494,324.1633 H 53.314 c -1.6994,0 -3.0776,1.3779 -3.0776,3.0778 0,1.7011 1.3782,3.0787 3.0776,3.0787 h 135.0354 c 1.6994,0 3.0779,-1.3776 3.0779,-3.0787 0,-1.6999 -1.3785,-3.0778 -3.0779,-3.0778" />
        <path
           inkscape:connector-curvature="0"
           id="path1706"
           style="fill:#05a300;fill-opacity:1;fill-rule:nonzero;stroke:none"
           d="m 127.506,460.7643 c 0,-3.5073 -2.8434,-6.3508 -6.3513,-6.3508 -3.507,0 -6.3507,2.8435 -6.3507,6.3508 0,3.5079 2.8437,6.3516 6.3507,6.3516 3.5079,0 6.3513,-2.8437 6.3513,-6.3516 z m -47.2308,36.6123 c -2.7408,-1.2932 -6.0115,-0.1197 -7.3046,2.6212 -1.2932,2.7408 -0.1196,6.0114 2.6212,7.3046 7.0974,3.3766 14.6421,6.0043 22.5297,7.7782 7.6992,1.7314 15.6575,2.6456 23.7728,2.6456 7.8763,0 15.573,-0.8487 23.0009,-2.4616 7.5781,-1.6455 14.8992,-4.1108 21.865,-7.3026 2.7527,-1.2577 3.9648,-4.5091 2.7071,-7.2618 -1.2577,-2.7527 -4.5091,-3.9648 -7.2618,-2.7071 -6.1801,2.8318 -12.7514,5.0355 -19.6308,6.5293 -6.6492,1.4437 -13.5686,2.2037 -20.6804,2.2037 -7.3939,0 -14.5437,-0.8102 -21.3667,-2.3446 -7.056,-1.5868 -13.8387,-3.9534 -20.2524,-7.0049 z m 14.7804,-12.7511 c -2.8358,-1.0559 -5.9913,0.3869 -7.0472,3.2227 -1.0559,2.8358 0.3869,5.9913 3.2227,7.0472 4.8294,1.7969 9.8626,3.1816 15.0551,4.1117 5.1451,0.9209 10.3637,1.402 15.6087,1.402 4.9921,0 9.9272,-0.4266 14.7679,-1.2459 4.9076,-0.8302 9.6902,-2.0732 14.3093,-3.6918 2.8596,-0.9967 4.3696,-4.123 3.3729,-6.9826 -0.9966,-2.8596 -4.123,-4.3696 -6.9825,-3.3729 -4.0105,1.4051 -8.1893,2.4891 -12.5042,3.219 -4.1732,0.7061 -8.5034,1.074 -12.9634,1.074 -4.7503,0 -9.3184,-0.4073 -13.6749,-1.1871 -4.5369,-0.8124 -8.9377,-2.0237 -13.1644,-3.5963 z m 43.6085,-3.3338 c 2.895,-0.8779 4.53,-3.9371 3.6521,-6.8321 -0.8779,-2.895 -3.937,-4.5301 -6.832,-3.6522 -2.2028,0.6744 -4.5165,1.1985 -6.9327,1.5605 -2.3001,0.3447 -4.6681,0.5224 -7.0949,0.5224 -2.4488,0 -4.85,-0.1839 -7.1929,-0.5405 -2.4143,-0.3674 -4.7591,-0.91 -7.0234,-1.6144 -2.895,-0.9017 -5.9732,0.7144 -6.8749,3.6094 -0.9017,2.895 0.7144,5.9732 3.6094,6.8749 2.8403,0.8835 5.7305,1.5562 8.6562,2.0015 2.9007,0.4414 5.847,0.6693 8.8256,0.6693 2.918,0 5.8176,-0.2217 8.6845,-0.6512 2.8446,-0.4263 5.6909,-1.0808 8.523,-1.9476" />
        <path
           inkscape:connector-curvature="0"
           id="path1708"
           style="fill:#05a300;fill-opacity:1;fill-rule:nonzero;stroke:none"
           d="m 274.466,431.0096 -9.3943,23.4473 -9.392,-23.4473 z m -13.447,33.2438 h 8.3761 l 20.1376,-50.4059 h -8.4478 l -3.7151,9.5964 h -24.5259 l -3.7185,-9.5964 h -8.176 z m 11.677,-32.0439 -7.6243,19.029 -7.6221,-19.029 z m 1.77,-1.1999 -9.3943,23.4473 -9.392,-23.4473 z m -13.447,33.2438 h 8.3761 l 20.1376,-50.4059 h -8.4478 l -3.7151,9.5964 h -24.5259 l -3.7185,-9.5964 h -8.176 z m 0,1.2 h 9.1837 l 21.0963,-52.8058 h -11.0319 l -3.7151,9.5964 h -22.8906 l -3.7182,-9.5964 h -10.7578 l 21.0252,52.8058 z m 63.8682,-32.8876 c 0,7.433 -1.8898,12.4322 -10,12.4322 -8.3764,0 -11.4857,-3.4458 -11.4857,-12.4322 0,-8.9215 2.8369,-12.2309 11.4857,-12.2309 7.9744,0 10,4.7973 10,12.2309 z m -29.3924,18.6491 6.1498,0.4703 0.6738,-3.6468 c 2.0299,2.8367 6.0817,4.5253 14.3929,4.5253 12.7732,0 16.1507,-8.3767 16.1507,-19.7286 0,-11.2853 -3.5133,-19.5965 -16.5552,-19.5965 -7.5011,0 -11.0801,1.4205 -12.9053,4.1233 v -14.6622 h -7.9067 z m 28.1925,-18.6491 c 0,3.4948 -0.422,6.3845 -1.7478,8.3285 -1.2586,1.845 -3.4458,2.9038 -7.0523,2.9038 -3.8381,0 -6.4279,-0.7438 -8.0028,-2.4574 -1.6007,-1.7413 -2.283,-4.5907 -2.283,-8.7749 0,-4.1533 0.6191,-6.9557 2.181,-8.6499 1.5386,-1.6693 4.132,-2.3811 8.1048,-2.3811 3.5495,0 5.7387,1.0156 7.0109,2.817 1.3382,1.895 1.7892,4.7288 1.7892,8.214 z m 1.1999,0 c 0,7.433 -1.8898,12.4322 -10,12.4322 -8.3764,0 -11.4857,-3.4458 -11.4857,-12.4322 0,-8.9215 2.8369,-12.2309 11.4857,-12.2309 7.9744,0 10,4.7973 10,12.2309 z m -29.3924,18.6491 6.1498,0.4703 0.6738,-3.6468 c 2.0299,2.8367 6.0817,4.5253 14.3929,4.5253 12.7732,0 16.1507,-8.3767 16.1507,-19.7286 0,-11.2853 -3.5133,-19.5965 -16.5552,-19.5965 -7.5011,0 -11.0801,1.4205 -12.9053,4.1233 v -14.6622 h -7.9067 z m -0.089,1.1951 7.2193,0.5522 0.4453,-2.4117 c 0.9802,0.7838 2.196,1.4389 3.7094,1.9488 2.4316,0.8189 5.6478,1.2643 9.9315,1.2643 6.8323,0 11.1844,-2.287 13.8495,-6.1229 2.6011,-3.744 3.5011,-8.9042 3.5011,-14.8056 0,-5.8723 -0.938,-11.0038 -3.6165,-14.7288 -2.7346,-3.8024 -7.1838,-6.0676 -14.1386,-6.0676 -3.8773,0 -6.7714,0.3776 -8.9606,1.1135 -1.0718,0.3605 -1.9766,0.8056 -2.7448,1.3328 v -12.9852 h -10.3065 v 50.8255 z m 44.9708,-1.1945 6.1489,0.4703 0.8113,-4.3246 c 1.5559,2.5711 6.1498,4.5964 12.5674,4.7328 v -7.9067 c -9.0542,-0.0683 -11.6209,-4.3246 -11.6209,-10.8788 v -19.4613 h -7.9067 z m -0.089,1.1951 7.2159,0.5519 0.5709,-3.0419 c 0.9396,0.745 2.1257,1.3995 3.5254,1.9265 2.228,0.8393 5.0377,1.3733 8.2809,1.4419 l 1.2234,0.0261 v -10.3138 l -1.1951,-0.009 c -4.161,-0.0315 -6.7876,-0.9782 -8.3387,-2.6325 -1.5324,-1.6348 -2.0871,-4.0652 -2.0871,-7.0512 v -20.6612 h -10.3065 v 39.6785 l 1.1109,0.0848 z m 0.089,-1.1951 6.1489,0.4703 0.8113,-4.3246 c 1.5559,2.5711 6.1498,4.5964 12.5674,4.7328 v -7.9067 c -9.0542,-0.0683 -11.6209,-4.3246 -11.6209,-10.8788 v -19.4613 h -7.9067 z m 53.0507,-18.5817 c 0,7.835 -2.772,12.3639 -11.0807,12.3639 -8.3795,0 -11.0823,-4.5289 -11.0823,-12.3639 0,-7.8383 2.7028,-12.4347 11.0823,-12.4347 8.3087,0 11.0807,4.5964 11.0807,12.4347 z m -30.0697,0.201 c 0,12.8378 5.3385,19.7297 18.989,19.7297 13.6491,0 18.9874,-6.8919 18.9874,-19.7297 0,-12.8375 -5.3383,-19.7286 -18.9874,-19.7286 -13.6505,0 -18.989,6.8911 -18.989,19.7286 z m 28.8698,-0.201 c 0,3.6491 -0.6143,6.4902 -2.1478,8.3605 -1.4962,1.8247 -3.968,2.8035 -7.733,2.8035 -3.7972,0 -6.2688,-0.9771 -7.7553,-2.7987 -1.5278,-1.872 -2.1271,-4.7151 -2.1271,-8.3653 0,-3.6541 0.5993,-6.5148 2.1271,-8.4021 1.4888,-1.8394 3.96,-2.8327 7.7553,-2.8327 3.7619,0 6.232,0.9933 7.7281,2.8327 1.537,1.8898 2.1527,4.75 2.1527,8.4021 z m 1.1999,0 c 0,7.835 -2.772,12.3639 -11.0807,12.3639 -8.3795,0 -11.0823,-4.5289 -11.0823,-12.3639 0,-7.8383 2.7028,-12.4347 11.0823,-12.4347 8.3087,0 11.0807,4.5964 11.0807,12.4347 z m -30.0697,0.201 c 0,12.8378 5.3385,19.7297 18.989,19.7297 13.6491,0 18.9874,-6.8919 18.9874,-19.7297 0,-12.8375 -5.3383,-19.7286 -18.9874,-19.7286 -13.6505,0 -18.989,6.8911 -18.989,19.7286 z m -1.1999,0 c 0,6.7156 1.4321,11.9154 4.6942,15.4851 3.278,3.5872 8.3135,5.4445 15.4947,5.4445 7.1808,0 12.216,-1.8575 15.4934,-5.4445 3.2618,-3.5697 4.6939,-8.7695 4.6939,-15.4851 0,-6.7156 -1.4318,-11.9151 -4.6939,-15.4845 -3.2774,-3.5867 -8.3126,-5.444 -15.4934,-5.444 -7.181,0 -12.2167,1.8573 -15.4947,5.444 -3.2621,3.5694 -4.6942,8.7689 -4.6942,15.4845 z m 43.0433,-13.3101 20.6079,24.9996 h -19.5282 v 7.1609 h 29.9341 v -5.8088 l -20.7433,-25.3377 h 21.4854 v -6.6909 H 405.201 Z m -0.9233,0.7594 18.9927,23.0403 h -18.1896 v 9.5607 h 32.3339 v -7.4358 l -19.411,-23.7107 h 20.1532 v -9.0907 h -34.1558 v 7.3009 z m 0.9233,-0.7594 20.6079,24.9996 h -19.5282 v 7.1609 h 29.9341 v -5.8088 l -20.7433,-25.3377 h 21.4854 v -6.6909 H 405.201 Z m 62.0404,10.6067 v 1.9613 h -1.4195 c -14.8641,0 -17.7033,-1.6886 -17.7033,-6.7587 0,-3.5115 1.6234,-5.4051 7.6374,-5.4051 8.1077,0 11.4854,3.1097 11.4854,10.2025 z m -26.5529,-5.4043 c 0,10.7436 6.0777,13.8518 24.6594,13.8518 h 1.8935 c -0.1354,4.5255 -1.3512,6.6235 -8.85,6.6235 -4.6644,0 -8.5842,-1.7578 -10.9468,-3.1774 l -4.1233,6.1495 c 2.5699,1.7572 8.7854,4.39 15.8808,4.39 13.174,0 15.6087,-4.39 15.6087,-15.1359 v -12.7015 c 0,-3.4455 0.269,-3.9869 3.5796,-3.9869 v -6.8241 c -0.5386,-0.1358 -1.5528,-0.1358 -3.2423,-0.1358 -3.8508,0 -5.6761,0.7421 -6.6906,3.9189 -2.1628,-2.9049 -6.2827,-4.5252 -14.0536,-4.5252 -11.1472,0 -13.7154,5.1352 -13.7154,11.5531 z m 25.353,5.4043 v 0.7614 h -0.2196 c -7.2763,0 -11.5665,-0.3954 -13.9709,-1.3842 -1.9837,-0.8155 -2.5324,-2.1552 -2.5324,-4.1746 0,-1.3901 0.2871,-2.4329 1.1043,-3.0772 0.942,-0.7424 2.6147,-1.1279 5.3331,-1.1279 3.7514,0 6.3641,0.6791 7.9864,2.1322 1.5803,1.4153 2.2991,3.6757 2.2991,6.8703 z m 1.1999,0 v 1.9613 h -1.4195 c -14.8641,0 -17.7033,-1.6886 -17.7033,-6.7587 0,-3.5115 1.6234,-5.4051 7.6374,-5.4051 8.1077,0 11.4854,3.1097 11.4854,10.2025 z m -26.5529,-5.4043 c 0,10.7436 6.0777,13.8518 24.6594,13.8518 h 1.8935 c -0.1354,4.5255 -1.3512,6.6235 -8.85,6.6235 -4.6644,0 -8.5842,-1.7578 -10.9468,-3.1774 l -4.1233,6.1495 c 2.5699,1.7572 8.7854,4.39 15.8808,4.39 13.174,0 15.6087,-4.39 15.6087,-15.1359 v -12.7015 c 0,-3.4455 0.269,-3.9869 3.5796,-3.9869 v -6.8241 c -0.5386,-0.1358 -1.5528,-0.1358 -3.2423,-0.1358 -3.8508,0 -5.6761,0.7421 -6.6906,3.9189 -2.1628,-2.9049 -6.2827,-4.5252 -14.0536,-4.5252 -11.1472,0 -13.7154,5.1352 -13.7154,11.5531 z m -1.1999,0 c 0,5.8459 1.6962,9.6384 5.985,12.0048 4.0408,2.2297 10.3822,3.0469 19.8743,3.0469 h 0.6228 c -0.1338,1.3037 -0.4516,2.2771 -1.1756,2.9044 -1.0278,0.8904 -2.9656,1.3193 -6.4037,1.3193 -1.893,0 -3.6485,-0.3045 -5.2078,-0.7572 -2.0891,-0.606 -3.8466,-1.4785 -5.125,-2.2467 l -0.9735,-0.5848 -5.4181,8.0804 0.9794,0.6693 c 1.5516,1.061 4.3429,2.4194 7.8159,3.3792 2.5991,0.7186 5.5897,1.2217 8.7398,1.2217 6.9497,0 11.1229,-1.2186 13.6259,-3.9271 2.5061,-2.7122 3.1827,-6.7411 3.1827,-12.4087 v -12.7015 c 0,-1.4377 0.0323,-2.2419 0.2622,-2.5123 0.1882,-0.2214 0.8371,-0.2747 2.1175,-0.2747 h 1.1999 v -8.9566 l -0.9094,-0.2299 c -0.3509,-0.0884 -0.8192,-0.1315 -1.4425,-0.1514 -0.6826,-0.0215 -1.3088,-0.0218 -2.0903,-0.0218 -2.1158,0 -3.7083,0.2217 -4.9807,0.9182 -0.8654,0.4736 -1.5401,1.1327 -2.073,2.044 -1.0845,-0.9646 -2.452,-1.7467 -4.1763,-2.3298 -2.3981,-0.8107 -5.4981,-1.2387 -9.5142,-1.2387 -5.9335,0 -9.6395,1.4233 -11.8956,3.7355 -2.2952,2.3522 -3.0197,5.5233 -3.0197,9.0175 z m 46.2798,26.4884 6.1486,0.4703 0.8113,-4.3246 c 1.556,2.5711 6.1498,4.5964 12.5677,4.7328 v -7.9067 c -9.0544,-0.0683 -11.6209,-4.3246 -11.6209,-10.8788 v -19.4613 h -7.9067 z m -0.089,1.1951 7.2156,0.5519 0.5709,-3.0419 c 0.9397,0.745 2.1257,1.3995 3.5254,1.9265 2.2281,0.8393 5.0378,1.3733 8.2812,1.4419 l 1.2234,0.0261 v -10.3138 l -1.1951,-0.009 c -4.1612,-0.0315 -6.7878,-0.9782 -8.3387,-2.6325 -1.5324,-1.6348 -2.0871,-4.0652 -2.0871,-7.0512 v -20.6612 h -10.3065 v 39.6785 l 1.1109,0.0848 z m 0.089,-1.1951 6.1486,0.4703 0.8113,-4.3246 c 1.556,2.5711 6.1498,4.5964 12.5677,4.7328 v -7.9067 c -9.0544,-0.0683 -11.6209,-4.3246 -11.6209,-10.8788 v -19.4613 h -7.9067 z m 25.5543,-20.611 v 21.081 h 7.8384 v -21.282 c 0,-5.6758 0.0646,-10 9.2554,-10 9.1899,0 9.1899,4.3242 9.1899,10.133 v 21.149 h 7.7032 v -20.9444 c 0,-11.8264 -2.3638,-17.5677 -16.8931,-17.5677 -14.5256,0 -17.0938,5.673 -17.0938,17.4311 z m -1.1999,0 v 22.2809 h 10.2382 v -22.4819 c 0,-2.6515 0.0139,-4.9853 0.9845,-6.4771 0.9422,-1.4483 2.9545,-2.323 7.071,-2.323 4.1077,0 6.1019,0.8725 7.0288,2.3303 0.9612,1.5123 0.9612,3.8841 0.9612,6.6028 v 22.3489 h 10.103 v -22.1443 c 0,-6.1778 -0.6458,-10.8005 -3.2746,-13.9827 -2.6481,-3.2054 -7.1569,-4.7849 -14.8184,-4.7849 -7.6467,0 -12.2023,1.5591 -14.9034,4.7327 -2.6878,3.1587 -3.3903,7.7517 -3.3903,13.8983 z m 1.1999,0 v 21.081 h 7.8384 v -21.282 c 0,-5.6758 0.0646,-10 9.2554,-10 9.1899,0 9.1899,4.3242 9.1899,10.133 v 21.149 h 7.7032 v -20.9444 c 0,-11.8264 -2.3638,-17.5677 -16.8931,-17.5677 -14.5256,0 -17.0938,5.673 -17.0938,17.4311 z m 43.5263,-6.3505 v 42.0288 h 7.7712 v -41.0823 c 0,-3.3128 0.5408,-4.3925 4.0549,-4.3925 h 1.4196 v -6.8919 c -0.6774,-0.068 -2.366,-0.1355 -4.1913,-0.1355 -6.4179,0 -9.0544,2.6348 -9.0544,10.4734 z m -1.1999,0 v 43.2287 h 10.171 v -42.2822 c 0,-1.3793 0.0819,-2.2572 0.4286,-2.6699 0.3144,-0.3745 1.0542,-0.5227 2.4264,-0.5227 h 2.6195 v -9.1738 l -1.0828,-0.1086 c -0.3767,-0.0377 -1.0497,-0.0756 -1.8799,-0.1023 -0.7966,-0.0255 -1.6506,-0.0425 -2.4285,-0.0425 -3.5606,0 -6.1115,0.7747 -7.829,2.7003 -1.6713,1.8737 -2.4253,4.7463 -2.4253,8.973 z m 1.1999,0 v 42.0288 h 7.7712 v -41.0823 c 0,-3.3128 0.5408,-4.3925 4.0549,-4.3925 h 1.4196 v -6.8919 c -0.6774,-0.068 -2.366,-0.1355 -4.1913,-0.1355 -6.4179,0 -9.0544,2.6348 -9.0544,10.4734" />
        <path
           inkscape:connector-curvature="0"
           id="path1710"
           style="fill:#f00000;fill-opacity:1;fill-rule:nonzero;stroke:none"
           d="m 240.9452,394.9319 h 8.5804 l 15.6099,-40.1363 15.4723,40.1363 h 8.5805 l -19.9979,-50.4057 h -8.3795 z m 0,1.1999 h 9.3971 l 14.7883,-38.0242 14.6583,38.0242 H 290.95 C 283.9666,378.5301 276.9786,360.93 270.0003,343.3263 h -10.0035 c -6.942,17.6001 -13.8756,35.2032 -20.8117,52.8055 z m 0,-1.1999 h 8.5804 l 15.6099,-40.1363 15.4723,40.1363 h 8.5805 l -19.9979,-50.4057 h -8.3795 z m 54.1596,-12.2306 h 7.7711 v -37.8372 h -7.7711 z m 0,1.1999 h 8.971 v -40.237 h -10.1709 v 40.237 z m 0,-1.1999 h 7.7711 v -37.8372 h -7.7711 z m 16.6104,-0.4709 6.1495,0.4703 0.8104,-4.3245 c 1.556,2.5701 6.1495,4.5972 12.5686,4.7327 v -7.9067 c -9.0545,-0.0672 -11.6218,-4.3234 -11.6218,-10.8785 v -19.4601 h -7.9067 z m -0.089,1.1951 7.2167,0.5519 0.5706,-3.0435 c 0.94,0.746 2.1263,1.4017 3.5261,1.9287 2.228,0.839 5.0374,1.3731 8.2805,1.4414 l 1.2235,0.026 v -10.3138 l -1.1951,-0.009 c -4.1613,-0.0309 -6.7882,-0.9774 -8.3393,-2.6317 -1.5327,-1.6347 -2.0874,-4.0657 -2.0874,-7.0517 v -20.66 h -10.3065 v 39.6771 l 1.1109,0.0847 z m 0.089,-1.1951 6.1495,0.4703 0.8104,-4.3245 c 1.556,2.5701 6.1495,4.5972 12.5686,4.7327 v -7.9067 c -9.0545,-0.0672 -11.6218,-4.3234 -11.6218,-10.8785 v -19.4601 h -7.9067 z m 22.9839,0.4706 h 6.7561 l 1.4196,10.1364 6.1463,1.2835 V 382.701 h 9.6636 v -7.1612 h -9.6636 v -18.65 c 0,-3.1731 0.4091,-5.0663 5.2711,-5.0663 h 4.3925 v -6.9599 c -1.0794,-0.0684 -4.5927,-0.0684 -5.877,-0.0684 -9.3943,0 -11.6215,3.3778 -11.6215,10.9469 v 19.7977 h -6.4871 z m 0,1.1999 h 5.7155 l 1.3912,9.9363 8.4152,1.7572 v -11.6935 h 9.6636 v -9.561 h -9.6636 v -17.4501 c 0,-1.3413 0.0684,-2.3896 0.5406,-2.9684 0.4742,-0.5811 1.508,-0.898 3.5306,-0.898 h 5.5924 v -9.2832 l -1.1248,-0.0717 c -0.5323,-0.0338 -1.7155,-0.0511 -2.9318,-0.0598 -1.8389,-0.0134 -2.6085,-0.0134 -3.0203,-0.0134 -5.046,0 -8.2217,0.9633 -10.196,3.0053 -1.9862,2.0543 -2.6254,5.0514 -2.6254,9.1415 v 18.5978 h -6.4871 v 9.561 z m 0,-1.1999 h 6.7561 l 1.4196,10.1364 6.1463,1.2835 V 382.701 h 9.6636 v -7.1612 h -9.6636 v -18.65 c 0,-3.1731 0.4091,-5.0663 5.2711,-5.0663 h 4.3925 v -6.9599 c -1.0794,-0.0684 -4.5927,-0.0684 -5.877,-0.0684 -9.3943,0 -11.6215,3.3778 -11.6215,10.9469 v 19.7977 h -6.4871 z m 31.5649,-21.0813 v 21.081 h 7.8384 v -21.2811 c 0,-5.6775 0.0646,-10.0021 9.2556,-10.0021 9.1897,0 9.1897,4.3246 9.1897,10.1342 v 21.149 h 7.7031 v -20.9455 c 0,-11.8253 -2.3638,-17.566 -16.8928,-17.566 -14.5261,0 -17.094,5.6735 -17.094,17.4305 z m -1.1999,0 v 22.2809 h 10.2382 v -22.481 c 0,-2.6524 0.0139,-4.9867 0.9844,-6.4786 0.9423,-1.4485 2.9546,-2.3236 7.0713,-2.3236 4.1077,0 6.1016,0.8726 7.0286,2.3307 0.9609,1.5123 0.9612,3.8843 0.9612,6.6036 v 22.3489 h 10.1029 v -22.1454 c 0,-6.1772 -0.646,-10.7997 -3.2745,-13.9813 -2.6482,-3.2051 -7.1567,-4.7846 -14.8182,-4.7846 -7.6467,0 -12.2025,1.5593 -14.9037,4.733 -2.6878,3.1586 -3.3902,7.7513 -3.3902,13.8974 z m 1.1999,0 v 21.081 h 7.8384 v -21.2811 c 0,-5.6775 0.0646,-10.0021 9.2556,-10.0021 9.1897,0 9.1897,4.3246 9.1897,10.1342 v 21.149 h 7.7031 v -20.9455 c 0,-11.8253 -2.3638,-17.566 -16.8928,-17.566 -14.5261,0 -17.094,5.6735 -17.094,17.4305 z m 67.2466,-0.4728 v 1.9604 h -1.4202 c -14.8632,0 -17.7032,-1.6877 -17.7032,-6.7586 0,-3.5107 1.6243,-5.404 7.6371,-5.404 8.1088,0 11.4863,3.1093 11.4863,10.2022 z m -26.553,-5.4048 c 0,10.7433 6.0781,13.8526 24.6631,13.8526 h 1.8899 c -0.1361,4.5252 -1.3521,6.6226 -8.8498,6.6226 -4.6652,0 -8.5841,-1.7572 -10.9468,-3.1776 l -4.1241,6.1503 c 2.5673,1.7563 8.7851,4.3891 15.8813,4.3891 13.1741,0 15.6087,-4.3891 15.6087,-15.1347 v -12.7023 c 0,-3.4458 0.2693,-3.987 3.5788,-3.987 v -6.8238 c -0.5378,-0.1361 -1.5523,-0.1361 -3.2412,-0.1361 -3.8514,0 -5.6766,0.743 -6.6909,3.9187 -2.1625,-2.9039 -6.2832,-4.5247 -14.0536,-4.5247 -11.1478,0 -13.7154,5.1347 -13.7154,11.5529 z m 25.3531,5.4048 v 0.7605 h -0.2203 c -7.2762,0 -11.5659,-0.3954 -13.9705,-1.3838 -1.984,-0.8159 -2.5328,-2.1552 -2.5328,-4.1749 0,-1.3896 0.2872,-2.4321 1.1047,-3.0762 0.9422,-0.7424 2.6144,-1.1279 5.3325,-1.1279 3.752,0 6.3646,0.6789 7.9872,2.132 1.5803,1.4153 2.2992,3.6757 2.2992,6.8703 z m 1.1999,0 v 1.9604 h -1.4202 c -14.8632,0 -17.7032,-1.6877 -17.7032,-6.7586 0,-3.5107 1.6243,-5.404 7.6371,-5.404 8.1088,0 11.4863,3.1093 11.4863,10.2022 z m -26.553,-5.4048 c 0,10.7433 6.0781,13.8526 24.6631,13.8526 h 1.8899 c -0.1361,4.5252 -1.3521,6.6226 -8.8498,6.6226 -4.6652,0 -8.5841,-1.7572 -10.9468,-3.1776 l -4.1241,6.1503 c 2.5673,1.7563 8.7851,4.3891 15.8813,4.3891 13.1741,0 15.6087,-4.3891 15.6087,-15.1347 v -12.7023 c 0,-3.4458 0.2693,-3.987 3.5788,-3.987 v -6.8238 c -0.5378,-0.1361 -1.5523,-0.1361 -3.2412,-0.1361 -3.8514,0 -5.6766,0.743 -6.6909,3.9187 -2.1625,-2.9039 -6.2832,-4.5247 -14.0536,-4.5247 -11.1478,0 -13.7154,5.1347 -13.7154,11.5529 z m -1.1999,0 c 0,5.8459 1.6965,9.6383 5.9856,12.005 4.0414,2.23 10.3833,3.0475 19.8774,3.0475 h 0.6188 c -0.1335,1.3037 -0.4512,2.2765 -1.1758,2.9038 -1.0278,0.8904 -2.9653,1.319 -6.4029,1.319 -1.8938,0 -3.6496,-0.3045 -5.2089,-0.7571 -2.0889,-0.6064 -3.8461,-1.4789 -5.1239,-2.2471 l -0.9734,-0.585 -5.4188,8.0812 0.9791,0.6696 c 1.5503,1.0604 4.3416,2.4188 7.8149,3.3783 2.6002,0.7186 5.591,1.2218 8.7414,1.2218 6.9497,0 11.1229,-1.2184 13.6259,-3.9269 l -0.002,-0.002 c 2.508,-2.7159 3.1852,-6.7431 3.1852,-12.4053 v -12.7023 c 0,-1.4378 0.0324,-2.2417 0.2622,-2.5124 0.1883,-0.2214 0.8368,-0.2746 2.1167,-0.2746 h 1.1999 v -8.9558 l -0.9094,-0.2305 c -0.3498,-0.0884 -0.8183,-0.1318 -1.442,-0.1516 -0.6825,-0.0216 -1.3084,-0.0219 -2.0897,-0.0219 -2.1163,0 -3.7091,0.222 -4.981,0.9185 -0.8654,0.4733 -1.5401,1.1327 -2.073,2.0435 -1.0848,-0.9644 -2.4522,-1.7465 -4.1763,-2.3293 h -0.005 c -2.3984,-0.8107 -5.4969,-1.2387 -9.5094,-1.2387 -5.9337,0 -9.6397,1.423 -11.8958,3.7352 -2.2952,2.3525 -3.0195,5.5233 -3.0195,9.0176 z m 46.6846,-0.4726 v 42.0291 h 7.7701 v -41.0823 c 0,-3.3131 0.5411,-4.3926 4.0555,-4.3926 h 1.4196 v -6.8918 c -0.6769,-0.0681 -2.3664,-0.1367 -4.1916,-0.1367 -6.4182,0 -9.0536,2.636 -9.0536,10.4743 z m -1.1999,0 v 43.229 h 10.1699 v -42.2822 c 0,-1.3793 0.0819,-2.2572 0.4286,-2.6699 0.3146,-0.3748 1.0545,-0.5227 2.427,-0.5227 h 2.6195 v -9.173 l -1.0828,-0.1094 c -0.3773,-0.038 -1.0523,-0.0762 -1.8862,-0.1032 -0.7946,-0.0258 -1.6458,-0.0428 -2.4225,-0.0428 -3.5609,0 -6.1118,0.775 -7.8287,2.7009 -1.671,1.874 -2.4248,4.7469 -2.4248,8.9733 z m 1.1999,0 v 42.0291 h 7.7701 v -41.0823 c 0,-3.3131 0.5411,-4.3926 4.0555,-4.3926 h 1.4196 v -6.8918 c -0.6769,-0.0681 -2.3664,-0.1367 -4.1916,-0.1367 -6.4182,0 -9.0536,2.636 -9.0536,10.4743 z m -149.5669,32.7841 h -7.7712 v 6.8786 h 7.7712 z m 0,-1.1999 h -8.9711 v 9.2784 h 10.171 v -9.2784 z m 0,1.1999 h -7.7712 v 6.8786 h 7.7712 z" />
        <path
           inkscape:connector-curvature="0"
           id="path1712"
           style="fill:#9b3c1e;fill-opacity:1;fill-rule:evenodd;stroke:none"
           d="m 162.161,477.6636 c 0.6344,-0.3974 1.4822,-0.9587 2.543,-1.6835 10.3138,-7.0472 18.8217,-16.5396 24.6858,-27.6392 5.6449,-10.6849 8.8412,-23.1063 8.8412,-36.0672 v -5.2257 c 0,-3.0373 2.4628,-5.5 5.5001,-5.5 3.0373,0 5.5,2.4627 5.5,5.5 v 5.2257 c 0,14.7739 -3.662,28.9372 -10.1304,41.1803 -6.7056,12.6924 -16.4276,23.5423 -28.2093,31.5924 -0.7378,0.504 -1.7155,1.1376 -2.9296,1.8984 -1.2997,0.8141 -2.2904,1.4162 -2.9707,1.8057 -2.6339,1.5069 -5.9913,0.593 -7.4982,-2.041 -1.5069,-2.6339 -0.593,-5.9913 2.041,-7.4982 1.2089,-0.6919 2.0854,-1.2087 2.6271,-1.5477 z M 43.6986,412.4988 c 0,12.9608 2.8942,24.6333 8.5388,35.318 0.0749,0.1417 0.1503,0.2834 0.2259,0.4246 -3.9481,1.3428 -7.3074,2.7955 -10.1412,4.2993 -6.3405,-12.1487 -9.6236,-25.4242 -9.6236,-40.0419 v -5.3382 c 0,-3.0374 2.4627,-5.5001 5.5001,-5.5001 3.0373,0 5.5,2.4627 5.5,5.5001 z m 38.6963,66.7125 c 2.634,1.5069 3.5479,4.8643 2.041,7.4982 -1.5069,2.634 -4.8643,3.5479 -7.4982,2.041 -0.6803,-0.3895 -1.6711,-0.9916 -2.9707,-1.8057 -2.2,-1.3788 -2.6365,-1.6563 -4.6508,-3.2709 1.5735,-2.4469 2.4922,-6.4021 1.9547,-12.2253 3.5226,3.0563 6.9103,5.351 11.124,7.7627" />
        <path
           inkscape:connector-curvature="0"
           id="path1714"
           style="fill:#9b3c1e;fill-opacity:1;fill-rule:evenodd;stroke:none"
           d="m 200.5362,394.1286 c 2.9914,-3.0957 6.0363,-6.2462 12.2142,-7.4347 1.0031,0.3557 1.8867,0.9637 2.5741,1.7481 0.9496,1.0834 1.5253,2.5027 1.5253,4.0564 0,1.4612 -0.5091,2.8034 -1.3592,3.859 -1.1287,1.4015 -2.859,2.2981 -4.7985,2.2981 h -9.9326 c -1.529,-0.1205 -2.6393,-1.3981 -1.6622,-3.0541 0.485,-0.4855 0.9612,-0.9788 1.4389,-1.4728 z m -154.8596,-2.655 c -3.1039,3.2117 -6.1509,6.3644 -12.5818,7.1819 h -0.9562 c -3.3998,0 -6.1577,-2.7561 -6.1577,-6.1571 0,-3.4005 2.7579,-6.1569 6.1577,-6.1569 h 19.2436 c -2.2235,1.5287 -3.9722,3.3384 -5.7056,5.1321 z m 2.2777,3.1533 0.4821,-0.4983 c 3.3693,-3.4866 6.8063,-7.0427 14.7107,-7.7871 h 13.5851 c -2.2235,1.5287 -3.9722,3.3384 -5.7056,5.1321 -3.104,3.2117 -6.1509,6.3644 -12.5819,7.1819 h -9.5896 c -1.8309,-0.1443 -3.0617,-1.9477 -0.826,-4.0737 z m 25.8321,-0.4983 c 3.3693,-3.4866 6.8063,-7.0427 14.7107,-7.7871 h 13.585 c -2.2235,1.5287 -3.9722,3.3384 -5.7056,5.1321 -1.1466,1.1863 -2.2853,2.3647 -3.5898,3.4203 -2.2269,1.802 -4.9365,3.246 -8.992,3.7616 h -9.2523 -0.3699 c -1.7283,-0.1361 -2.9211,-1.7504 -1.1696,-3.7191 0.2616,-0.2681 0.5224,-0.538 0.7835,-0.8078 z m 25.3499,0 c 3.3693,-3.4866 6.8063,-7.0427 14.7107,-7.7871 h 13.5851 c -2.2235,1.5287 -3.9722,3.3384 -5.7056,5.1321 -2.5311,2.619 -5.0244,5.1988 -9.3458,6.505 -0.978,0.2956 -2.0492,0.5261 -3.2361,0.6769 h -9.6548 c -1.6597,-0.1307 -2.8255,-1.6248 -1.3643,-3.4863 0.3388,-0.3447 0.6744,-0.6925 1.0108,-1.0406 z m 25.35,0 c 2.3533,-2.4353 4.7395,-4.9045 8.6581,-6.4259 1.6918,-0.6565 3.6692,-1.1367 6.0526,-1.3612 h 13.585 c -2.2235,1.5287 -3.9722,3.3384 -5.7056,5.1321 -3.1039,3.2117 -6.1509,6.3644 -12.5818,7.1819 h -1.4281 -0.4708 -7.7885 c -1.6178,-0.1276 -2.7663,-1.5503 -1.4701,-3.3463 l 0.315,-0.3209 c 0.2789,-0.2852 0.5564,-0.5723 0.8342,-0.8597 z m 25.35,0 c 3.3692,-3.4866 6.8062,-7.0427 14.7106,-7.7871 h 13.5851 c -2.2235,1.5287 -3.9722,3.3384 -5.7056,5.1321 -3.1039,3.2117 -6.1509,6.3644 -12.5819,7.1819 h -9.72 c -1.584,-0.1247 -2.7181,-1.4913 -1.548,-3.2343 0.4232,-0.4272 0.8411,-0.8595 1.2598,-1.2926 z m 25.3499,0 c 1.7257,-1.7859 3.4693,-3.5901 5.8218,-5.0253 2.2405,-1.3666 5.0332,-2.3987 8.8889,-2.7618 h 13.585 c -2.2235,1.5287 -3.9722,3.3384 -5.7056,5.1321 -3.1039,3.2117 -6.1509,6.3644 -12.5818,7.1819 h -4.0088 -5.7438 c -1.5551,-0.1225 -2.6768,-1.4426 -1.6095,-3.1399 0.4555,-0.4581 0.9042,-0.9219 1.3538,-1.387" />
        <path
           inkscape:connector-curvature="0"
           id="path1716"
           style="fill:#ff8500;fill-opacity:1;fill-rule:evenodd;stroke:none"
           d="m 82.5503,435.2366 z m 5.2968,-15.8114 -4.9354,15.5512 -0.1276,0.409 -0.2338,-0.1488 -0.6563,-0.4258 -0.9646,-0.5731 -0.3495,-0.1945 -0.4133,-0.2219 -1.3456,-0.6716 c -3.7035,-1.7455 -8.1578,-2.7346 -12.2916,-2.4199 l 3.3041,0.9414 2.5835,1.063 4.7987,2.8769 4.2109,4.0141 -0.1437,0.4873 c -3.2494,7.0353 -11.5929,10.0896 -18.627,6.8403 -1.0282,-0.4765 -1.9712,-1.0611 -2.8225,-1.734 -0.0093,-0.0303 -0.0184,-0.0609 -0.0278,-0.0913 -0.0065,0.0179 -0.0133,0.0357 -0.0198,0.0536 -4.9394,-3.9402 -6.7482,-10.8663 -3.9827,-16.8545 l -0.002,-0.0131 0.0026,-0.004 c 0.7461,-1.3641 0.8351,-1.7465 1.9114,-3.0379 l 6.6623,-10.6365 c 3.9319,-0.2276 7.6688,0.8618 10.7501,2.9081 -2.1932,-2.8786 -5.2501,-5.0411 -8.7239,-6.1515 l 6.1863,-9.8807 17.4674,3e-4 c -2.2173,3.0161 -3.5397,6.8176 -3.5397,10.9485 0,2.4724 0.4737,4.8269 1.3295,6.9653" />
        <path
           inkscape:connector-curvature="0"
           id="path1718"
           style="fill:#f00000;fill-opacity:1;fill-rule:evenodd;stroke:none"
           d="m 103.1499,430.2113 c -6.8689,0 -12.7655,-4.4447 -15.3028,-10.7858 -0.8558,-2.1387 -1.3295,-4.4932 -1.3295,-6.9656 0,-4.1309 1.3224,-7.9324 3.5397,-10.9485 h 3.4747 l 39.0637,6e-4 h 3.4183 c 2.2172,3.016 3.539,6.8173 3.539,10.9479 0,5.9522 -2.7448,11.2204 -6.9573,14.4409 -2.7256,2.084 -6.0659,3.3105 -9.6744,3.3105 -2.0594,0 -4.028,-0.4047 -5.8453,-1.1401 -2.611,-1.0559 -5.4695,-1.0559 -8.0805,0 -1.8173,0.7354 -3.7859,1.1401 -5.8456,1.1401 z m 24.876,-10.1454 c -2.7397,1.4626 -7.4154,1.243 -5.9547,5.2075 0.9292,2.5242 7.4704,1.332 10.1469,-1.0579 0.1258,-0.1123 0.252,-0.2333 0.3776,-0.362 2.5432,-2.6064 4.8662,-8.3409 1.2512,-8.6556 -0.4853,-0.0422 -0.8969,-0.0178 -1.2512,0.0595 -2.416,0.529 -2.1807,3.534 -4.5698,4.8085" />
        <path
           inkscape:connector-curvature="0"
           id="path1720"
           style="fill:#ff8500;fill-opacity:1;fill-rule:evenodd;stroke:none"
           d="m 132.5957,426.9008 c 4.2125,-3.2205 6.9573,-8.4887 6.9573,-14.4409 0,-4.1306 -1.3221,-7.9319 -3.539,-10.9479 l 45.1717,5e-4 v 27.9644 c 0,4.8177 -3.3746,8.8846 -7.876,9.9567 v 2.4905 h -32.838 v -2.4905 c -4.5014,-1.0721 -7.876,-5.139 -7.876,-9.9567 z m 40.4458,5.0326 c -2.16,1.1214 -5.8226,0.9082 -4.7117,4.0272 0.7072,1.9862 5.8436,1.1094 7.9611,-0.7396 2.1189,-1.8479 4.3239,-6.7581 1.3538,-7.0509 -2.9696,-0.292 -2.4443,2.6416 -4.6032,3.7633" />
      </g>
    </g>
  </g>
</svg>
